<svg width="180" height="28" viewBox="0 0 180 28" fill="none" xmlns="http://www.w3.org/2000/svg">
<path d="M1.95709 26.9999L0.913086 1.87186H3.82909L4.15309 14.6159L4.36909 23.3639H4.51309L9.44509 12.0239L13.9811 1.87186H17.4371L17.9771 12.4919L18.4811 23.3279H18.6251L22.4411 14.4359L27.8411 1.87186H30.8651L19.5971 26.9999H16.2491L15.6011 13.7879L15.2411 5.18386H15.0611L11.1371 13.9679L5.34109 26.9999H1.95709Z" fill="white"/>
<path d="M36.5047 27.4319C34.2727 27.4319 32.5447 26.7719 31.3207 25.4519C30.0967 24.1319 29.4847 22.1999 29.4847 19.6559C29.4847 18.1199 29.7127 16.6559 30.1687 15.2639C30.6487 13.8479 31.3087 12.5999 32.1487 11.5199C33.0127 10.4399 34.0327 9.58786 35.2087 8.96386C36.4087 8.31586 37.7407 7.99186 39.2047 7.99186C39.9967 7.99186 40.7527 8.09986 41.4727 8.31586C42.1927 8.50786 42.8287 8.80786 43.3807 9.21586C43.9327 9.62386 44.3647 10.1399 44.6767 10.7639C45.0127 11.3879 45.1807 12.1199 45.1807 12.9599C45.1807 14.9999 44.1247 16.5119 42.0127 17.4959C39.9247 18.4799 36.7087 18.9959 32.3647 19.0439C32.3167 19.3079 32.2807 19.5839 32.2567 19.8719C32.2567 20.1359 32.2567 20.3639 32.2567 20.5559C32.2567 21.8759 32.6287 22.9439 33.3727 23.7599C34.1407 24.5519 35.2447 24.9479 36.6847 24.9479C37.8607 24.9479 38.9167 24.6839 39.8527 24.1559C40.8127 23.6039 41.6527 22.8839 42.3727 21.9959L44.1727 23.6159C43.0207 25.0319 41.7847 26.0279 40.4647 26.6039C39.1687 27.1559 37.8487 27.4319 36.5047 27.4319ZM38.9167 10.3679C38.1967 10.3679 37.5007 10.4999 36.8287 10.7639C36.1807 11.0279 35.5927 11.3999 35.0647 11.8799C34.5607 12.3359 34.1167 12.9119 33.7327 13.6079C33.3727 14.2799 33.1087 15.0239 32.9407 15.8399L32.7247 16.8839C34.7167 16.8119 36.3367 16.6919 37.5847 16.5239C38.8327 16.3319 39.8047 16.0799 40.5007 15.7679C41.2207 15.4319 41.7007 15.0359 41.9407 14.5799C42.2047 14.1239 42.3367 13.5719 42.3367 12.9239C42.3367 12.4199 42.2407 12.0119 42.0487 11.6999C41.8567 11.3639 41.6047 11.0999 41.2927 10.9079C40.9807 10.7159 40.6087 10.5839 40.1767 10.5119C39.7687 10.4159 39.3487 10.3679 38.9167 10.3679Z" fill="white"/>
<path d="M50.4634 26.9999C49.6234 26.9999 48.9874 26.7959 48.5554 26.3879C48.1474 25.9559 47.9434 25.4039 47.9434 24.7319C47.9434 24.5159 47.9794 24.2279 48.0514 23.8679L52.7674 0.359863H55.5394L50.6794 24.5519H53.4874L53.0194 26.9999H50.4634Z" fill="white"/>
<path d="M64.0956 27.4319C63.0396 27.4319 62.0916 27.2519 61.2516 26.8919C60.4356 26.5319 59.7396 26.0159 59.1636 25.3439C58.5876 24.6719 58.1436 23.8799 57.8316 22.9679C57.5196 22.0319 57.3636 20.9879 57.3636 19.8359C57.3636 18.2279 57.5676 16.7039 57.9756 15.2639C58.4076 13.8239 59.0196 12.5639 59.8116 11.4839C60.6036 10.4039 61.5516 9.55186 62.6556 8.92786C63.7836 8.30386 65.0556 7.99186 66.4716 7.99186C68.1276 7.99186 69.4716 8.39986 70.5036 9.21586C71.5596 10.0319 72.2676 11.0759 72.6276 12.3479L70.3236 13.3919C69.6996 11.4479 68.3916 10.4759 66.3996 10.4759C64.9116 10.4759 63.6996 10.9439 62.7636 11.8799C61.8516 12.8159 61.2276 14.1119 60.8916 15.7679L60.2796 18.7919C60.2316 19.0559 60.1956 19.3439 60.1716 19.6559C60.1476 19.9439 60.1356 20.1959 60.1356 20.4119C60.1356 21.7559 60.4836 22.8479 61.1796 23.6879C61.8756 24.5279 62.9436 24.9479 64.3836 24.9479C65.2956 24.9479 66.1236 24.6959 66.8676 24.1919C67.6356 23.6639 68.3916 22.7039 69.1356 21.3119L71.3316 22.3919C70.5636 23.9999 69.5676 25.2479 68.3436 26.1359C67.1196 26.9999 65.7036 27.4319 64.0956 27.4319Z" fill="white"/>
<path d="M81.3916 27.4319C80.4076 27.4319 79.5077 27.2759 78.6917 26.9639C77.8756 26.6279 77.1676 26.1479 76.5676 25.5239C75.9917 24.8759 75.5356 24.0839 75.1996 23.1479C74.8636 22.1879 74.6956 21.0719 74.6956 19.7999C74.6956 18.2399 74.9236 16.7519 75.3796 15.3359C75.8596 13.8959 76.5197 12.6359 77.3596 11.5559C78.1996 10.4759 79.2076 9.61186 80.3837 8.96386C81.5597 8.31586 82.8557 7.99186 84.2717 7.99186C85.2317 7.99186 86.1196 8.15986 86.9356 8.49586C87.7756 8.80786 88.4837 9.28786 89.0596 9.93586C89.6596 10.5599 90.1276 11.3519 90.4636 12.3119C90.7996 13.2719 90.9677 14.3759 90.9677 15.6239C90.9677 17.1839 90.7277 18.6839 90.2477 20.1239C89.7916 21.5399 89.1436 22.7879 88.3036 23.8679C87.4637 24.9479 86.4557 25.8119 85.2796 26.4599C84.1036 27.1079 82.8076 27.4319 81.3916 27.4319ZM81.7516 24.9479C83.0956 24.9479 84.2956 24.4559 85.3516 23.4719C86.4076 22.4879 87.1276 21.0479 87.5117 19.1519L88.0517 16.4519C88.1717 15.8519 88.2317 15.3119 88.2317 14.8319C88.2317 13.5359 87.8596 12.4919 87.1156 11.6999C86.3956 10.8839 85.3277 10.4759 83.9117 10.4759C82.5676 10.4759 81.3676 10.9679 80.3116 11.9519C79.2556 12.9359 78.5357 14.3759 78.1516 16.2719L77.6116 18.9719C77.4916 19.5719 77.4316 20.1119 77.4316 20.5919C77.4316 21.8879 77.7916 22.9439 78.5117 23.7599C79.2557 24.5519 80.3356 24.9479 81.7516 24.9479Z" fill="white"/>
<path d="M94.0206 26.9999L97.7646 8.42386H100.537L99.7806 12.0959H99.9606C100.609 10.7039 101.365 9.67186 102.229 8.99986C103.117 8.32786 104.245 7.99186 105.613 7.99186C106.909 7.99186 107.917 8.35186 108.637 9.07186C109.357 9.79186 109.789 10.7999 109.933 12.0959H110.149C110.773 10.7039 111.553 9.67186 112.489 8.99986C113.425 8.32786 114.577 7.99186 115.945 7.99186C117.505 7.99186 118.669 8.43586 119.437 9.32386C120.229 10.2119 120.625 11.4719 120.625 13.1039C120.625 13.8719 120.541 14.6759 120.373 15.5159L118.573 24.5519H121.201L120.733 26.9999H118.141C117.421 26.9999 116.845 26.8319 116.413 26.4959C115.981 26.1599 115.765 25.6439 115.765 24.9479C115.765 24.7559 115.801 24.4799 115.873 24.1199L117.601 15.5159C117.745 14.7959 117.817 14.1359 117.817 13.5359C117.817 12.5279 117.589 11.7719 117.133 11.2679C116.701 10.7639 115.981 10.5119 114.973 10.5119C113.845 10.5119 112.801 11.0039 111.841 11.9879C111.241 12.5879 110.737 13.3199 110.329 14.1839C109.945 15.0479 109.681 15.8639 109.537 16.6319L107.449 26.9999H104.677L106.981 15.5519C107.125 14.8319 107.197 14.1359 107.197 13.4639C107.197 11.4959 106.333 10.5119 104.605 10.5119C103.981 10.5119 103.393 10.6439 102.841 10.9079C102.289 11.1719 101.809 11.5199 101.401 11.9519C100.729 12.6239 100.177 13.3919 99.7446 14.2559C99.3126 15.1199 99.0246 15.9119 98.8806 16.6319L96.7926 26.9999H94.0206Z" fill="white"/>
<path d="M132.024 27.4319C129.792 27.4319 128.064 26.7719 126.84 25.4519C125.616 24.1319 125.004 22.1999 125.004 19.6559C125.004 18.1199 125.232 16.6559 125.688 15.2639C126.168 13.8479 126.828 12.5999 127.668 11.5199C128.532 10.4399 129.552 9.58786 130.728 8.96386C131.928 8.31586 133.26 7.99186 134.724 7.99186C135.516 7.99186 136.272 8.09986 136.992 8.31586C137.712 8.50786 138.348 8.80786 138.9 9.21586C139.452 9.62386 139.884 10.1399 140.196 10.7639C140.532 11.3879 140.7 12.1199 140.7 12.9599C140.7 14.9999 139.644 16.5119 137.532 17.4959C135.444 18.4799 132.228 18.9959 127.884 19.0439C127.836 19.3079 127.8 19.5839 127.776 19.8719C127.776 20.1359 127.776 20.3639 127.776 20.5559C127.776 21.8759 128.148 22.9439 128.892 23.7599C129.66 24.5519 130.764 24.9479 132.204 24.9479C133.38 24.9479 134.436 24.6839 135.372 24.1559C136.332 23.6039 137.172 22.8839 137.892 21.9959L139.692 23.6159C138.54 25.0319 137.304 26.0279 135.984 26.6039C134.688 27.1559 133.368 27.4319 132.024 27.4319ZM134.436 10.3679C133.716 10.3679 133.02 10.4999 132.348 10.7639C131.7 11.0279 131.112 11.3999 130.584 11.8799C130.08 12.3359 129.636 12.9119 129.252 13.6079C128.892 14.2799 128.628 15.0239 128.46 15.8399L128.244 16.8839C130.236 16.8119 131.856 16.6919 133.104 16.5239C134.352 16.3319 135.324 16.0799 136.02 15.7679C136.74 15.4319 137.22 15.0359 137.46 14.5799C137.724 14.1239 137.856 13.5719 137.856 12.9239C137.856 12.4199 137.76 12.0119 137.568 11.6999C137.376 11.3639 137.124 11.0999 136.812 10.9079C136.5 10.7159 136.128 10.5839 135.696 10.5119C135.288 10.4159 134.868 10.3679 134.436 10.3679Z" fill="white"/>
<path d="M155.031 26.9999C154.191 26.9999 153.555 26.7959 153.123 26.3879C152.715 25.9559 152.511 25.4039 152.511 24.7319C152.511 24.5159 152.547 24.2279 152.619 23.8679L155.247 10.8719H152.511L152.979 8.42386H154.383C155.055 8.42386 155.499 8.29186 155.715 8.02786C155.955 7.76386 156.135 7.30786 156.255 6.65986L156.939 3.27586H159.495L158.487 8.42386H162.411L161.943 10.8719H158.019L155.247 24.5519H158.883L158.415 26.9999H155.031Z" fill="white"/>
<path d="M169.95 27.4319C168.966 27.4319 168.066 27.2759 167.25 26.9639C166.434 26.6279 165.726 26.1479 165.126 25.5239C164.55 24.8759 164.094 24.0839 163.758 23.1479C163.422 22.1879 163.254 21.0719 163.254 19.7999C163.254 18.2399 163.482 16.7519 163.938 15.3359C164.418 13.8959 165.078 12.6359 165.918 11.5559C166.758 10.4759 167.766 9.61186 168.942 8.96386C170.118 8.31586 171.414 7.99186 172.83 7.99186C173.79 7.99186 174.678 8.15986 175.494 8.49586C176.334 8.80786 177.042 9.28786 177.618 9.93586C178.218 10.5599 178.686 11.3519 179.022 12.3119C179.358 13.2719 179.526 14.3759 179.526 15.6239C179.526 17.1839 179.286 18.6839 178.806 20.1239C178.35 21.5399 177.702 22.7879 176.862 23.8679C176.022 24.9479 175.014 25.8119 173.838 26.4599C172.662 27.1079 171.366 27.4319 169.95 27.4319ZM170.31 24.9479C171.654 24.9479 172.854 24.4559 173.91 23.4719C174.966 22.4879 175.686 21.0479 176.07 19.1519L176.61 16.4519C176.73 15.8519 176.79 15.3119 176.79 14.8319C176.79 13.5359 176.418 12.4919 175.674 11.6999C174.954 10.8839 173.886 10.4759 172.47 10.4759C171.126 10.4759 169.926 10.9679 168.87 11.9519C167.814 12.9359 167.094 14.3759 166.71 16.2719L166.17 18.9719C166.05 19.5719 165.99 20.1119 165.99 20.5919C165.99 21.8879 166.35 22.9439 167.07 23.7599C167.814 24.5519 168.894 24.9479 170.31 24.9479Z" fill="white"/>
</svg>
